<svg width="240" height="240" viewBox="0 0 240 240" fill="none" xmlns="http://www.w3.org/2000/svg">
<line x1="73.9549" y1="95.2971" x2="59.9549" y2="140.297" stroke="#8F8F8F" stroke-width="2"/>
<line x1="192.012" y1="185.844" x2="213.012" y2="52.844" stroke="#8F8F8F" stroke-width="2"/>
<line x1="153.392" y1="159.794" x2="72.3922" y2="97.7941" stroke="#8F8F8F" stroke-width="2"/>
<rect x="154.5" y="23.5" width="59" height="59" rx="29.5" stroke="#8F8F8F" stroke-dasharray="4 4"/>
<rect x="135.5" y="151.5" width="59" height="59" rx="29.5" stroke="#8F8F8F" stroke-dasharray="4 4"/>
<rect x="49.5" y="33.5" width="159" height="159" rx="79.5" stroke="#8F8F8F" stroke-dasharray="6 6"/>
<rect x="139" y="144" width="30" height="30" rx="15" fill="white" stroke="#8F8F8F" stroke-width="2"/>
<rect x="134" y="187" width="30" height="30" rx="15" fill="white" stroke="#8F8F8F" stroke-width="2"/>
<rect x="178" y="171" width="30" height="30" rx="15" fill="white" stroke="#8F8F8F" stroke-width="2"/>
<rect x="19.5" y="83.5" width="59" height="59" rx="29.5" stroke="#8F8F8F" stroke-dasharray="4 4"/>
<rect x="10" y="98" width="30" height="30" rx="15" fill="white" stroke="#8F8F8F" stroke-width="2"/>
<rect x="58" y="82" width="30" height="30" rx="15" fill="white" stroke="#8F8F8F" stroke-width="2"/>
<rect x="45" y="124" width="30" height="30" rx="15" fill="white" stroke="#8F8F8F" stroke-width="2"/>
<rect x="142" y="38" width="30" height="30" rx="15" fill="white" stroke="#8F8F8F" stroke-width="2"/>
<rect x="199" y="38" width="30" height="30" rx="15" fill="white" stroke="#8F8F8F" stroke-width="2"/>
</svg>
